<svg width="512" height="512" viewBox="0 0 512 512" xmlns="http://www.w3.org/2000/svg" fill="none" stroke="#1c130c" stroke-width="10" stroke-linecap="round" stroke-linejoin="round">
  <rect x="20" y="20" width="472" height="472" rx="64" ry="64" stroke-dasharray="16 16" opacity="0.35" />
  <g opacity="0.9">
    <path d="M136 360a56 56 0 1 0 0-112 56 56 0 0 0 0 112z" />
    <path d="M136 248a44 44 0 1 0 0-88 44 44 0 0 0 0 88z" />
    <path d="M136 174c0-20 16-36 36-36" stroke-dasharray="8 18" />
    <circle cx="120" cy="228" r="4" />
    <circle cx="152" cy="228" r="4" />
    <path d="M116 292c12 12 28 12 40 0" />
  </g>
  <g opacity="0.85">
    <path d="M256 124l22 58h62l-50 36 20 60-54-38-54 38 20-60-50-36h62z" />
    <path d="M256 184l12 34h36l-30 22 12 36-30-22-30 22 12-36-30-22h36z" opacity="0.65" />
  </g>
  <g opacity="0.95">
    <path d="M372 360c33 0 60-31 60-70s-27-70-60-70c-25 0-47 18-56 44" />
    <path d="M356 224c16-12 40-20 64-20" stroke-dasharray="12 18" />
    <path d="M348 274h52" />
    <path d="M336 314h72" />
    <path d="M356 354h48" />
    <circle cx="360" cy="250" r="6" />
    <circle cx="388" cy="250" r="6" />
    <path d="M356 390c28 28 72 28 100 0" />
  </g>
  <g opacity="0.65">
    <path d="M108 420c24 24 64 24 88 0" />
    <path d="M208 420c24 24 64 24 88 0" />
    <path d="M308 420c24 24 64 24 88 0" />
  </g>
  <g opacity="0.6">
    <circle cx="80" cy="120" r="16" />
    <circle cx="432" cy="360" r="12" />
    <circle cx="420" cy="140" r="20" />
    <circle cx="92" cy="340" r="10" />
  </g>
</svg>
