<svg xmlns="http://www.w3.org/2000/svg" viewBox="0 0 100 100" width="100" height="100">
  <!-- Main axes -->
  <line x1="50" y1="15" x2="50" y2="85" stroke="black" stroke-width="2"/>
  <line x1="15" y1="50" x2="85" y2="50" stroke="black" stroke-width="2"/>
  <line x1="25" y1="25" x2="75" y2="75" stroke="black" stroke-width="2"/>
  <line x1="75" y1="25" x2="25" y2="75" stroke="black" stroke-width="2"/>
  <!-- Branches top -->
  <line x1="50" y1="15" x2="45" y2="25" stroke="black" stroke-width="1.5"/>
  <line x1="50" y1="15" x2="55" y2="25" stroke="black" stroke-width="1.5"/>
  <!-- Branches right -->
  <line x1="85" y1="50" x2="75" y2="45" stroke="black" stroke-width="1.5"/>
  <line x1="85" y1="50" x2="75" y2="55" stroke="black" stroke-width="1.5"/>
  <!-- Branches bottom -->
  <line x1="50" y1="85" x2="45" y2="75" stroke="black" stroke-width="1.5"/>
  <line x1="50" y1="85" x2="55" y2="75" stroke="black" stroke-width="1.5"/>
  <!-- Branches left -->
  <line x1="15" y1="50" x2="25" y2="45" stroke="black" stroke-width="1.5"/>
  <line x1="15" y1="50" x2="25" y2="55" stroke="black" stroke-width="1.5"/>
  <!-- Diagonal branches -->
  <line x1="25" y1="25" x2="30" y2="35" stroke="black" stroke-width="1.5"/>
  <line x1="25" y1="25" x2="35" y2="30" stroke="black" stroke-width="1.5"/>
  <line x1="75" y1="75" x2="70" y2="65" stroke="black" stroke-width="1.5"/>
  <line x1="75" y1="75" x2="65" y2="70" stroke="black" stroke-width="1.5"/>
  <line x1="75" y1="25" x2="65" y2="30" stroke="black" stroke-width="1.5"/>
  <line x1="75" y1="25" x2="70" y2="35" stroke="black" stroke-width="1.5"/>
  <line x1="25" y1="75" x2="35" y2="70" stroke="black" stroke-width="1.5"/>
  <line x1="25" y1="75" x2="30" y2="65" stroke="black" stroke-width="1.5"/>
  <!-- Center -->
  <circle cx="50" cy="50" r="5" fill="none" stroke="black" stroke-width="2"/>
</svg>
