<svg xmlns="http://www.w3.org/2000/svg" viewBox="0 0 100 100" width="100" height="100">
  <!-- Christmas tree -->
  <path d="M 50 10 L 30 35 L 35 35 L 20 55 L 25 55 L 15 75 L 85 75 L 75 55 L 80 55 L 65 35 L 70 35 Z" fill="none" stroke="black" stroke-width="2"/>
  <!-- Trunk -->
  <rect x="45" y="75" width="10" height="12" fill="none" stroke="black" stroke-width="2"/>
  <!-- Star on top -->
  <path d="M 50 2 L 52 8 L 58 8 L 53 12 L 55 18 L 50 14 L 45 18 L 47 12 L 42 8 L 48 8 Z" fill="black"/>
  <!-- Ornaments -->
  <circle cx="50" cy="30" r="2" fill="black"/>
  <circle cx="42" cy="45" r="2" fill="black"/>
  <circle cx="58" cy="50" r="2" fill="black"/>
  <circle cx="35" cy="65" r="2" fill="black"/>
  <circle cx="65" cy="68" r="2" fill="black"/>
</svg>
